Director: Miguel Gomes

Writers: Miguel Gomes , Mariana Ricardo

Stars: Teresa Madruga, Laura Soveral and Ana Moreira 

Plot: A temperamental old woman, her Cape Verdean maid and a neighbor devoted to social causes live on the same floor of a Lisbon apartment building. When the old lady dies, the other two learn of an episode from her past: a tale of love and crime set in an Africa straight from the world of adventure films.

Tabu won the Alfred Bauer and the International Critique award (Fipresci) at the Berlin Film Festival 2012.

Imdb:  
http://www.imdb.com/title/tt2153963/

Language: Portugese

Subtitle: Portugese for english parts

Rip Specs:

General
Complete name                    : Tabu.2012.DVDRip.AC3.HORiZON-ArtSubs.avi
Format                           : AVI
Format/Info                      : Audio Video Interleave
File size                        : 1.36 GiB
Duration                         : 1h 40mn
Overall bit rate                 : 1 949 Kbps
Writing application              : FairUse Wizard - http://fairusewizard.com
Writing library                  : The best and REALLY easy backup tool

Video
ID                               : 0
Format                           : MPEG-4 Visual
Format profile                   : Advanced Simple@L5
Format settings, BVOP            : 1
Format settings, QPel            : No
Format settings, GMC             : No warppoints
Format settings, Matrix          : Default (MPEG)
Muxing mode                      : Packed bitstream
Codec ID                         : XVID
Codec ID/Hint                    : XviD
Duration                         : 1h 40mn
Bit rate                         : 1 747 Kbps
Width                            : 704 pixels
Height                           : 512 pixels
Display aspect ratio             : 1.375
Frame rate                       : 25.000 fps
Color space                      : YUV
Chroma subsampling               : 4:2:0
Bit depth                        : 8 bits
Scan type                        : Progressive
Compression mode                 : Lossy
Bits/(Pixel*Frame)               : 0.194
Stream size                      : 1.22 GiB (90%)
Writing library                  : XviD 1.2.0.dev47 (UTC 2006-11-01)

Audio
ID                               : 1
Format                           : AC-3
Format/Info                      : Audio Coding 3
Mode extension                   : CM (complete main)
Codec ID                         : 2000
Duration                         : 1h 40mn
Bit rate mode                    : Constant
Bit rate                         : 192 Kbps
Channel(s)                       : 2 channels
Channel positions                : Front: L R
Sampling rate                    : 48.0 KHz
Bit depth                        : 16 bits
Compression mode                 : Lossy
Stream size                      : 138 MiB (10%)
Alignment                        : Split accross interleaves
Interleave, duration             : 40 ms (1.00 video frame)
Interleave, preload duration     : 500 ms

